<?xml version="1.0" encoding="UTF-8"?>
<svg version="1.1" xmlns="http://www.w3.org/2000/svg" width="204" height="192">
<path d="M0 0 C2.7587207 1.21141428 4.85877825 2.85877825 7 5 C15.77679347 5.70724492 23.07129437 5.23561542 31.31640625 1.97265625 C45.10005321 -3.02316339 63.42009427 -0.98578166 76.8203125 4.0625 C80.5076528 5.1496765 84.06032628 5.44757332 87.875 5.625 C88.56335938 5.66367188 89.25171875 5.70234375 89.9609375 5.7421875 C91.64023246 5.83548166 93.32007767 5.91878238 95 6 C95.28875 5.36578125 95.5775 4.7315625 95.875 4.078125 C97 2 97 2 99 0.75 C104.75121051 -0.68780263 109.93743709 -0.95489023 115.375 1.5625 C119.31010671 5.21652766 121.63201868 8.26701515 122.34765625 13.58203125 C122.6415554 22.7184614 120.32690505 29.61106719 115 37 C113.53195637 38.85146564 113.53195637 38.85146564 113 41 C113.31324219 42.00417969 113.62648437 43.00835937 113.94921875 44.04296875 C115.29658013 48.49860515 115.25765562 52.75211416 115.1875 57.375 C115.1865332 58.57382813 115.1865332 58.57382813 115.18554688 59.796875 C115.15611003 63.83953444 114.91708656 67.67378004 114.28515625 71.66796875 C113.73251663 76.23485874 114.94504239 78.92256367 117.25 82.9375 C125.58807539 98.17456073 127.09699364 114.69006231 123.14453125 131.609375 C121.46846928 136.57463709 119.23147082 141.26308303 117 146 C117.74048584 145.99887207 118.48097168 145.99774414 119.24389648 145.99658203 C122.64265822 146.00878775 126.03923111 146.06656657 129.4375 146.125 C130.60216797 146.12242187 131.76683594 146.11984375 132.96679688 146.1171875 C140.79576319 146.29361491 146.19860197 147.53273518 152 153 C155.87100697 158.05351034 156.64942795 163.01977484 156.37890625 169.3203125 C155.67227026 174.31775876 154.04235357 178.13867323 150.28125 181.56640625 C145.62783015 185.02689431 142.02322778 186.12340855 136.18676758 186.12597656 C134.99154984 186.12978333 133.79633209 186.13359009 132.56489563 186.13751221 C131.27117538 186.13853943 129.97745514 186.13956665 128.64453125 186.140625 C126.61096631 186.15255917 124.5774437 186.16792524 122.5439024 186.18333054 C117.52948098 186.22125892 112.51531381 186.25262263 107.50073242 186.25048828 C104.00855563 186.24969729 100.51725296 186.27322911 97.02530479 186.3123703 C95.06020858 186.32780549 93.09496406 186.31752503 91.12983704 186.30670166 C84.41130267 186.39777467 80.32181791 186.85768577 74.91435242 190.86608887 C71.19987073 193.06625436 67.08235116 192.71158529 62.875 192.6640625 C61.45550049 192.67123795 61.45550049 192.67123795 60.00732422 192.67855835 C58.01723558 192.68194327 56.02709026 192.67284002 54.03710938 192.65185547 C51.00784171 192.62506934 47.98227876 192.65165102 44.953125 192.68359375 C43.01040857 192.6802894 41.06769442 192.67388265 39.125 192.6640625 C38.22894043 192.67418365 37.33288086 192.68430481 36.40966797 192.69473267 C31.80445333 192.60979064 28.91553173 192.23033635 25.15039062 189.49389648 C19.94927406 185.8522039 14.62235638 186.34437115 8.46875 186.43359375 C6.68301575 186.42514183 6.68301575 186.42514183 4.86120605 186.41651917 C1.07373247 186.40011787 -2.71256769 186.41557251 -6.5 186.4375 C-10.28732206 186.45412586 -14.07387167 186.46314578 -17.86120605 186.44776917 C-20.21187598 186.43853249 -22.56271004 186.44750717 -24.91320801 186.47740173 C-32.19733648 186.45313632 -38.06734513 185.667053 -43.55236816 180.55247498 C-48.17719864 175.36890082 -48.37268526 170.51659448 -48.265625 163.81640625 C-47.68853377 157.69754183 -45.11942793 153.50350421 -40.5 149.5 C-33.20224593 144.93118611 -23.25849722 146.53557117 -15 147 C-15.40992188 146.02160156 -15.81984375 145.04320312 -16.2421875 144.03515625 C-25.23334165 122.31810355 -24.88701915 104.06688449 -16.02734375 82.05078125 C-15 80 -15 80 -13.36328125 77.97265625 C-11.47636114 75.24229908 -12.07507902 73.16683703 -12.60546875 70.0078125 C-12.73566406 69.34523438 -12.86585937 68.68265625 -13 68 C-14.738497 58.72801597 -13.56651647 51.48513265 -11.16796875 42.48828125 C-10.59151759 38.85953351 -10.59151759 38.85953351 -13.28125 36.359375 C-14.1784375 35.58078125 -15.075625 34.8021875 -16 34 C-19.98060226 26.78016839 -20.97496726 19.12076391 -20 11 C-16.72684649 1.35281071 -9.37044903 -1.09058825 0 0 Z " fill="#C85110" transform="translate(48,0)"/>
<path d="M0 0 C2.7587207 1.21141428 4.85877825 2.85877825 7 5 C15.77679347 5.70724492 23.07129437 5.23561542 31.31640625 1.97265625 C45.10005321 -3.02316339 63.42009427 -0.98578166 76.8203125 4.0625 C80.5076528 5.1496765 84.06032628 5.44757332 87.875 5.625 C88.56335938 5.66367188 89.25171875 5.70234375 89.9609375 5.7421875 C91.64023246 5.83548166 93.32007767 5.91878238 95 6 C95.28875 5.36578125 95.5775 4.7315625 95.875 4.078125 C97 2 97 2 99 0.75 C104.75121051 -0.68780263 109.93743709 -0.95489023 115.375 1.5625 C119.31010671 5.21652766 121.63201868 8.26701515 122.34765625 13.58203125 C122.6415554 22.7184614 120.32690505 29.61106719 115 37 C113.53195637 38.85146564 113.53195637 38.85146564 113 41 C113.31324219 42.00417969 113.62648437 43.00835937 113.94921875 44.04296875 C115.29658013 48.49860515 115.25765562 52.75211416 115.1875 57.375 C115.1865332 58.57382813 115.1865332 58.57382813 115.18554688 59.796875 C115.15611003 63.83953444 114.91708656 67.67378004 114.28515625 71.66796875 C113.73251663 76.23485874 114.94504239 78.92256367 117.25 82.9375 C125.58807539 98.17456073 127.09699364 114.69006231 123.14453125 131.609375 C121.46846928 136.57463709 119.23147082 141.26308303 117 146 C117.74048584 145.99887207 118.48097168 145.99774414 119.24389648 145.99658203 C122.64265822 146.00878775 126.03923111 146.06656657 129.4375 146.125 C130.60216797 146.12242187 131.76683594 146.11984375 132.96679688 146.1171875 C140.79576319 146.29361491 146.19860197 147.53273518 152 153 C155.87100697 158.05351034 156.64942795 163.01977484 156.37890625 169.3203125 C155.67227026 174.31775876 154.04235357 178.13867323 150.28125 181.56640625 C145.62783015 185.02689431 142.02322778 186.12340855 136.18676758 186.12597656 C134.99154984 186.12978333 133.79633209 186.13359009 132.56489563 186.13751221 C131.27117538 186.13853943 129.97745514 186.13956665 128.64453125 186.140625 C126.61096631 186.15255917 124.5774437 186.16792524 122.5439024 186.18333054 C117.52948098 186.22125892 112.51531381 186.25262263 107.50073242 186.25048828 C104.00855563 186.24969729 100.51725296 186.27322911 97.02530479 186.3123703 C95.06020858 186.32780549 93.09496406 186.31752503 91.12983704 186.30670166 C84.41130267 186.39777467 80.32181791 186.85768577 74.91435242 190.86608887 C71.19987073 193.06625436 67.08235116 192.71158529 62.875 192.6640625 C61.45550049 192.67123795 61.45550049 192.67123795 60.00732422 192.67855835 C58.01723558 192.68194327 56.02709026 192.67284002 54.03710938 192.65185547 C51.00784171 192.62506934 47.98227876 192.65165102 44.953125 192.68359375 C43.01040857 192.6802894 41.06769442 192.67388265 39.125 192.6640625 C38.22894043 192.67418365 37.33288086 192.68430481 36.40966797 192.69473267 C31.80445333 192.60979064 28.91553173 192.23033635 25.15039062 189.49389648 C19.94927406 185.8522039 14.62235638 186.34437115 8.46875 186.43359375 C6.68301575 186.42514183 6.68301575 186.42514183 4.86120605 186.41651917 C1.07373247 186.40011787 -2.71256769 186.41557251 -6.5 186.4375 C-10.28732206 186.45412586 -14.07387167 186.46314578 -17.86120605 186.44776917 C-20.21187598 186.43853249 -22.56271004 186.44750717 -24.91320801 186.47740173 C-32.19733648 186.45313632 -38.06734513 185.667053 -43.55236816 180.55247498 C-48.17719864 175.36890082 -48.37268526 170.51659448 -48.265625 163.81640625 C-47.68853377 157.69754183 -45.11942793 153.50350421 -40.5 149.5 C-33.20224593 144.93118611 -23.25849722 146.53557117 -15 147 C-15.40992188 146.02160156 -15.81984375 145.04320312 -16.2421875 144.03515625 C-25.23334165 122.31810355 -24.88701915 104.06688449 -16.02734375 82.05078125 C-15 80 -15 80 -13.36328125 77.97265625 C-11.47636114 75.24229908 -12.07507902 73.16683703 -12.60546875 70.0078125 C-12.73566406 69.34523438 -12.86585937 68.68265625 -13 68 C-14.738497 58.72801597 -13.56651647 51.48513265 -11.16796875 42.48828125 C-10.59151759 38.85953351 -10.59151759 38.85953351 -13.28125 36.359375 C-14.1784375 35.58078125 -15.075625 34.8021875 -16 34 C-19.98060226 26.78016839 -20.97496726 19.12076391 -20 11 C-16.72684649 1.35281071 -9.37044903 -1.09058825 0 0 Z M-6 13 C-6.50204863 20.51253427 -6.50204863 20.51253427 -4.25 27.5625 C-1.55087273 30.50093582 -1.55087273 30.50093582 2 32 C5.16695956 32.16724737 5.16695956 32.16724737 8 32 C7.59007812 32.6290625 7.18015625 33.258125 6.7578125 33.90625 C0.11318354 44.46135438 -0.86567171 53.76929543 0 66 C0.62729093 68.55397021 1.36477607 70.81061348 2.44140625 73.203125 C3.17339225 75.55776528 2.86874377 76.70403433 2 79 C1.11061313 80.40659954 0.16765738 81.78007519 -0.8125 83.125 C-8.67198538 94.64093661 -12.15176893 109.20921347 -9.62939453 123.03076172 C-6.40547394 137.60717689 0.83066153 148.37280081 10 160 C8.74340576 159.98952637 7.48681152 159.97905273 6.19213867 159.96826172 C1.53494103 159.93209183 -3.12224416 159.90911047 -7.77954102 159.89013672 C-9.79616381 159.88007227 -11.81277199 159.86641953 -13.8293457 159.84912109 C-16.72611089 159.82489231 -19.62268331 159.81352141 -22.51953125 159.8046875 C-23.42274612 159.79436493 -24.325961 159.78404236 -25.25654602 159.77340698 C-26.09719101 159.77325592 -26.937836 159.77310486 -27.80395508 159.77294922 C-28.91315056 159.76628738 -28.91315056 159.76628738 -30.04475403 159.75949097 C-32.32324251 159.89124013 -32.32324251 159.89124013 -35 162 C-35.39476082 165.55284736 -35.53314915 168.01132686 -33.81396484 171.1993866 C-32.1230958 173.21248893 -32.1230958 173.21248893 -29.54931641 173.47187805 C-28.57655762 173.45964706 -27.60379883 173.44741608 -26.6015625 173.43481445 C-25.49611084 173.43193924 -24.39065918 173.42906403 -23.25170898 173.42610168 C-22.05489502 173.40537094 -20.85808105 173.3846402 -19.625 173.36328125 C-17.0872395 173.36314672 -14.54947886 173.36382402 -12.01171875 173.36523438 C-8.01341688 173.34442264 -4.01613342 173.31269487 -0.01806641 173.2644043 C3.84267043 173.22537067 7.70161604 173.22956597 11.5625 173.23828125 C13.33343018 173.1980761 13.33343018 173.1980761 15.14013672 173.15705872 C22.74404642 173.20131868 27.34794342 174.70938303 33.50463867 179.20866394 C39.77880661 183.71267831 46.19875777 186.7645053 54 186 C56.98303903 184.9927723 59.75085745 183.65957013 62.5625 182.25 C63.29146484 181.90195313 64.02042969 181.55390625 64.77148438 181.1953125 C67.97480384 179.63834354 70.68792981 178.27586864 73.37817383 175.89770508 C78.47664328 172.48043479 85.13111048 173.45946102 91.0078125 173.49609375 C92.37972307 173.48872048 93.7516235 173.47916917 95.12350464 173.46754456 C98.72231021 173.44092373 102.32078435 173.43524609 105.91967773 173.43664551 C111.68625389 173.43887987 117.45242169 173.42473166 123.21883774 173.38105965 C125.22848099 173.37123711 127.23818797 173.38035605 129.24783325 173.38975525 C130.4694516 173.38287186 131.69106995 173.37598846 132.94970703 173.36889648 C134.0241507 173.36985825 135.09859436 173.37082001 136.20559692 173.37181091 C139.38647737 172.94857703 140.77200367 172.29080702 143 170 C143.63465737 165.38718135 143.63465737 165.38718135 141.76933289 161.30827332 C139.47714921 159.61339568 138.09017478 159.60485794 135.25317383 159.56762695 C133.81201958 159.53793571 133.81201958 159.53793571 132.3417511 159.50764465 C131.30729355 159.50125473 130.272836 159.49486481 129.20703125 159.48828125 C128.14586594 159.47033005 127.08470062 159.45237885 125.99137878 159.43388367 C122.59845975 159.37965476 119.20568238 159.3458441 115.8125 159.3125 C113.5136521 159.2793381 111.21482294 159.2448495 108.91601562 159.20898438 C103.27747079 159.12392118 97.6389079 159.05562466 92 159 C92.52746826 158.36586182 93.05493652 157.73172363 93.59838867 157.07836914 C97.69589046 152.0706242 101.37562623 147.20433779 104.3125 141.4375 C104.63283203 140.84259766 104.95316406 140.24769531 105.28320312 139.63476562 C109.7197801 131.15174012 111.49467922 123.64348657 111.375 114.0625 C111.39240234 112.67514648 111.39240234 112.67514648 111.41015625 111.25976562 C111.37223599 102.24106328 109.09109976 94.58489094 105 86.5625 C104.505 85.57378906 104.01 84.58507812 103.5 83.56640625 C102.15267584 81.004464 102.15267584 81.004464 100.30078125 79.328125 C99.65689453 78.67070312 99.65689453 78.67070312 99 78 C99.21175486 74.82367704 99.91368952 72.22983436 101.03125 69.25390625 C104.07691678 59.02390453 102.42003663 47.79935854 97.6875 38.390625 C96.50513172 36.22742849 95.2853229 34.10325566 94 32 C95.19625 31.979375 96.3925 31.95875 97.625 31.9375 C102.04171398 31.34808087 104.24471502 29.75008515 106.9453125 26.25390625 C108.93223375 22.00778194 108.446232 17.56974621 108 13 C107.01 13 106.02 13 105 13 C105 14.32 105 15.64 105 17 C99.9598504 18.68004987 94.71479867 18.26888596 89.4375 18.3125 C88.29474609 18.34150391 87.15199219 18.37050781 85.97460938 18.40039062 C79.31646504 18.44987941 74.16007646 17.80251919 68.10571289 14.96166992 C62.42739383 12.36840629 56.57226361 12.74337216 50.4375 12.6875 C49.40302734 12.65849609 48.36855469 12.62949219 47.30273438 12.59960938 C39.85051042 12.53894631 33.77294502 13.84836026 27 17 C26.67 17.33 26.34 17.66 26 18 C24.00035018 18.08758003 21.9976389 18.10696576 19.99609375 18.09765625 C18.78115234 18.09443359 17.56621094 18.09121094 16.31445312 18.08789062 C15.03505859 18.07951172 13.75566406 18.07113281 12.4375 18.0625 C11.15423828 18.05798828 9.87097656 18.05347656 8.54882812 18.04882812 C5.36583978 18.03699545 2.18294238 18.02051068 -1 18 C-1.66 16.35 -2.32 14.7 -3 13 C-3.99 13 -4.98 13 -6 13 Z " fill="#040202" transform="translate(48,0)"/>
<path d="M0 0 C0.99 0 1.98 0 3 0 C3.66 1.65 4.32 3.3 5 5 C9.31226745 5.11719343 13.62411934 5.18758416 17.9375 5.25 C19.14986328 5.28351562 20.36222656 5.31703125 21.61132812 5.3515625 C29.13864061 5.43315938 34.4062476 4.59609538 41 1 C52.47266507 -2.82422169 69.20057039 -1.31434382 80 4 C80.99 4.495 80.99 4.495 82 5 C83.92384589 5.09700679 85.8510548 5.13076217 87.77734375 5.1328125 C88.93041016 5.13410156 90.08347656 5.13539062 91.27148438 5.13671875 C92.48126953 5.13285156 93.69105469 5.12898438 94.9375 5.125 C96.74637695 5.13080078 96.74637695 5.13080078 98.59179688 5.13671875 C99.74615234 5.13542969 100.90050781 5.13414063 102.08984375 5.1328125 C103.15066162 5.13168457 104.21147949 5.13055664 105.30444336 5.12939453 C108.0997444 5.11696125 108.0997444 5.11696125 111 4 C111 2.68 111 1.36 111 0 C111.99 0 112.98 0 114 0 C115.03061707 10.55428222 115.03061707 10.55428222 111.5 15.125 C107.96977286 18.67207787 104.85918086 18.75292301 100 19 C99.67 19.66 99.34 20.32 99 21 C96.4375 21.625 96.4375 21.625 94 22 C94 22.66 94 23.32 94 24 C92.125 25.0625 92.125 25.0625 90 26 C89.34 25.67 88.68 25.34 88 25 C85.22256247 24.71267888 82.47204338 24.48697014 79.6875 24.3125 C78.92759766 24.25255859 78.16769531 24.19261719 77.38476562 24.13085938 C71.82845455 23.77846084 68.25995509 24.39424244 63.625 27.6875 C61.67198034 29.92605855 61.67198034 29.92605855 62.3125 32.875 C62.44011719 33.4628125 62.56773438 34.050625 62.69921875 34.65625 C63.38861928 40.0282022 62.64639101 45.64213673 62 51 C61.67 51.33 61.34 51.66 61 52 C61.99 52.495 61.99 52.495 63 53 C63 53.66 63 54.32 63 55 C63.66 54.67 64.32 54.34 65 54 C64.505 53.0409375 64.505 53.0409375 64 52.0625 C62.18434839 46.50206694 62.15534495 41.22803069 64.5 35.8125 C67.44844001 30.52855733 72.30879886 26.89706705 78 25 C84.62628859 23.9294953 89.28955333 25.4784338 94.82421875 29.1796875 C99.17965332 32.82355197 100.59057973 36.32049054 101.4375 41.86328125 C101.83618638 48.40007662 100.87581617 52.94854379 96.82421875 58.15234375 C92.34515792 62.6889514 87.87911937 64.21036158 81.5625 64.625 C75.47675782 64.43800792 71.58497085 61.80382767 67 58 C67 59.32 67 60.64 67 62 C66.34 62 65.68 62 65 62 C64.82984375 62.556875 64.6596875 63.11375 64.484375 63.6875 C62.76684063 69.09590609 60.64657745 73.98062896 58 79 C57.34 79 56.68 79 56 79 C54.82592979 76.73272667 53.66060261 74.46165376 52.5 72.1875 C52.16613281 71.54490234 51.83226562 70.90230469 51.48828125 70.24023438 C49.99760916 67.30452301 49 65.33873483 49 62 C48.34 62 47.68 62 47 62 C47 61.34 47 60.68 47 60 C42.76796065 61.37012532 42.76796065 61.37012532 38.6875 63.125 C33.41733197 64.84086866 28.59188087 64.45867754 23.3125 62.9375 C18.45213435 60.09464462 15.4809859 56.49074902 12.625 51.6875 C11.23222597 45.69857169 10.92018454 40.1452058 14.0625 34.6875 C17.3824979 30.01491037 21.52258856 26.82580381 27 25 C31.62461681 24.53395335 35.59008669 24.5639516 39.8125 26.625 C42.84432084 28.35257624 42.84432084 28.35257624 45.4375 27.1875 C45.953125 26.795625 46.46875 26.40375 47 26 C40.04175174 19.04175174 26.63269831 20.25720743 17.54882812 19.828125 C16.39189453 19.76109375 15.23496094 19.6940625 14.04296875 19.625 C13.00164795 19.57601562 11.96032715 19.52703125 10.88745117 19.4765625 C6.71089222 18.78723781 4.01128288 17.11589836 1.1875 14 C-0.63063306 9.40682175 -0.23074239 4.87977427 0 0 Z " fill="#EBA202" transform="translate(42,13)"/>
<path d="M0 0 C0.99 0 1.98 0 3 0 C3 0.66 3 1.32 3 2 C3.72445312 2.28875 4.44890625 2.5775 5.1953125 2.875 C6.94304688 3.57604109 8.68831798 4.28329486 10.4296875 5 C11.64011719 5.495 11.64011719 5.495 12.875 6 C13.67679688 6.33 14.47859375 6.66 15.3046875 7 C22.18179229 9.55150554 28.10387496 10.3384683 35.375 10.3125 C36.26960938 10.32861328 37.16421875 10.34472656 38.0859375 10.36132812 C44.28729749 10.36583493 49.24300013 9.23305751 55 7 C60 5.4375 60 5.4375 62.25 4.74609375 C64.20102447 4.13743592 64.20102447 4.13743592 65 2 C66.97888961 1.27306096 68.97954558 0.60183749 71 0 C77.71345545 7.62892665 77.31485012 19.36844867 77 29 C76.97164063 29.87785156 76.94328125 30.75570312 76.9140625 31.66015625 C76.29151432 41.96184638 72.77225733 50.94916713 68 60 C67.67 60.99 67.34 61.98 67 63 C67.64839844 63.38414062 68.29679687 63.76828125 68.96484375 64.1640625 C71 66 71 66 71.56640625 68.5234375 C71.55581639 76.2540359 71.55581639 76.2540359 68.625 80.1875 C66 82 66 82 64 82 C63.67 81.34 63.34 80.68 63 80 C61.35 80.66 59.7 81.32 58 82 C57.67 81.01 57.34 80.02 57 79 C56.67 79.66 56.34 80.32 56 81 C54.02 81.495 54.02 81.495 52 82 C52 77.71 52 73.42 52 69 C43.42 69 34.84 69 26 69 C26 73.29 26 77.58 26 82 C24.35 81.34 22.7 80.68 21 80 C20.67 80.66 20.34 81.32 20 82 C15.125 80.125 15.125 80.125 14 79 C13.34 79.99 12.68 80.98 12 82 C9 81 9 81 7.80078125 79.33203125 C6.76185119 76.30646419 6.9890997 73.87313493 7.1875 70.6875 C7.27021372 65.37018919 6.89788886 62.81910887 3.4375 58.8671875 C-4.01888355 49.18199364 -5.36092098 36.43644056 -5.375 24.6875 C-5.39949219 23.62337891 -5.42398438 22.55925781 -5.44921875 21.46289062 C-5.47666666 13.96503576 -4.17673766 7.81341519 -1 1 C-0.67 0.67 -0.34 0.34 0 0 Z " fill="#F68849" transform="translate(63,91)"/>
<path d="M0 0 C0.66 3.96 1.32 7.92 2 12 C2.99 12 3.98 12 5 12 C5.66 10.68 6.32 9.36 7 8 C7.61875 8.639375 8.2375 9.27875 8.875 9.9375 C10.82597612 12.03883584 10.82597612 12.03883584 13 13 C13.33 12.01 13.66 11.02 14 10 C15.32 10.66 16.64 11.32 18 12 C18.33 8.04 18.66 4.08 19 0 C27.58 0 36.16 0 45 0 C45.495 5.94 45.495 5.94 46 12 C46.99 12 47.98 12 49 12 C49.33 11.01 49.66 10.02 50 9 C50.99 9.495 50.99 9.495 52 10 C51.67 10.99 51.34 11.98 51 13 C52.98 12.01 54.96 11.02 57 10 C57 10.99 57 11.98 57 13 C33.13832669 26.70216332 33.13832669 26.70216332 25 26 C22.1685695 25.00437464 19.57873199 23.66736902 16.9375 22.25 C16.25623047 21.90195313 15.57496094 21.55390625 14.87304688 21.1953125 C11.82140391 19.61232768 9.18651464 18.16148616 6.56933594 15.89550781 C1.70080957 12.64209492 -4.32745873 13.47850252 -9.94921875 13.53125 C-11.1987886 13.52420044 -12.44835846 13.51715088 -13.73579407 13.5098877 C-17.71982446 13.48785404 -21.70345737 13.49004469 -25.6875 13.5 C-30.94174509 13.51309145 -36.19499133 13.49846044 -41.44921875 13.46875 C-43.26796761 13.48572937 -43.26796761 13.48572937 -45.12345886 13.50305176 C-46.24504898 13.4962439 -47.3666391 13.48943604 -48.5222168 13.48242188 C-49.51005661 13.48560425 -50.49789642 13.48878662 -51.51567078 13.49206543 C-54 13 -54 13 -55.81892395 11.19641113 C-57.53253704 8.00965709 -57.39435267 5.54917403 -57 2 C-53.9971521 -0.0018986 -53.36392206 -0.2564284 -49.99438477 -0.3347168 C-49.19247208 -0.35781418 -48.39055939 -0.38091156 -47.56434631 -0.40470886 C-46.69877609 -0.41939713 -45.83320587 -0.43408539 -44.94140625 -0.44921875 C-44.04187729 -0.47095657 -43.14234833 -0.4926944 -42.21556091 -0.51509094 C-40.30664989 -0.55903551 -38.39762451 -0.59822902 -36.48852539 -0.63305664 C-33.60457432 -0.68671714 -30.72141094 -0.75713082 -27.83789062 -0.83007812 C-18.46525604 -1.04323809 -9.32821044 -1.04168933 0 0 Z " fill="#C75012" transform="translate(70,160)"/>
<path d="M0 0 C6.33305966 3.58810925 9.99443409 6.87002102 12.328125 13.87109375 C13.10240775 20.30652576 12.29706525 25.63780965 8.328125 30.87109375 C2.80809144 35.98017914 -1.79781202 38.21244657 -9.33203125 38.078125 C-14.77153285 37.59683354 -18.40368246 35.465992 -21.984375 31.49609375 C-26.02971466 26.30727142 -27.2033575 22.00585873 -27.046875 15.43359375 C-26.29947848 10.32638422 -23.71441113 6.66781044 -19.88671875 3.30078125 C-13.70963376 -1.28940929 -7.26262028 -3.06856325 0 0 Z " fill="#F5D0BA" transform="translate(80.671875,39.12890625)"/>
<path d="M0 0 C4.88621869 2.66718151 8.66725233 5.33317833 10.765625 10.609375 C12.42386313 17.48415393 12.55185644 23.76570957 8.828125 29.94140625 C4.88874004 35.0010825 0.95642127 37.34286978 -5.34765625 38.3828125 C-11.52503927 38.78438512 -15.32839949 37.72696494 -20.015625 33.6640625 C-24.98274921 28.49778473 -27.06931726 23.51067255 -26.94140625 16.34765625 C-26.37846408 11.32196962 -24.43745622 7.57554581 -20.73046875 4.14453125 C-14.29397973 -0.83396854 -7.90460297 -3.13179445 0 0 Z " fill="#F3D2BE" transform="translate(131.671875,39.05859375)"/>
<path d="M0 0 C24.51763173 -0.90619583 24.51763173 -0.90619583 34.66015625 8.47265625 C36.41376257 10.4716652 37.32212705 12.43914665 38 15 C38.66 15 39.32 15 40 15 C40.226875 14.278125 40.45375 13.55625 40.6875 12.8125 C42.27144824 9.41832519 44.2326793 7.50376635 47 5 C47.598125 4.443125 48.19625 3.88625 48.8125 3.3125 C55.5722264 -0.74333584 63.39634236 -0.24871408 71 -0.125 C72.06089844 -0.11597656 73.12179688 -0.10695313 74.21484375 -0.09765625 C76.81013638 -0.07427524 79.40494465 -0.04150556 82 0 C81.67 0.66 81.34 1.32 81 2 C78.4375 2.625 78.4375 2.625 76 3 C76 3.66 76 4.32 76 5 C74.125 6.0625 74.125 6.0625 72 7 C71.01 6.505 71.01 6.505 70 6 C67.22256247 5.71267888 64.47204338 5.48697014 61.6875 5.3125 C60.54764648 5.22258789 60.54764648 5.22258789 59.38476562 5.13085938 C53.82845455 4.77846084 50.25995509 5.39424244 45.625 8.6875 C43.67198034 10.92605855 43.67198034 10.92605855 44.3125 13.875 C44.44011719 14.4628125 44.56773438 15.050625 44.69921875 15.65625 C45.38861928 21.0282022 44.64639101 26.64213673 44 32 C43.67 32.33 43.34 32.66 43 33 C43.99 33.495 43.99 33.495 45 34 C45 34.66 45 35.32 45 36 C46.32 36 47.64 36 49 36 C50.04449911 39.13349732 49.93423645 39.98968256 49 43 C48.34 43 47.68 43 47 43 C46.82984375 43.556875 46.6596875 44.11375 46.484375 44.6875 C44.76684063 50.09590609 42.64657745 54.98062896 40 60 C39.34 60 38.68 60 38 60 C36.82592979 57.73272667 35.66060261 55.46165376 34.5 53.1875 C34.16613281 52.54490234 33.83226562 51.90230469 33.48828125 51.24023438 C31.99760916 48.30452301 31 46.33873483 31 43 C30.34 43 29.68 43 29 43 C29 42.34 29 41.68 29 41 C27.515 41.495 27.515 41.495 26 42 C26.97007729 40.02051797 27.95445064 38.0776334 29.0703125 36.17578125 C31.94202741 31.10241825 32.92428705 26.8036629 32 21 C30.67570727 17.68194858 30.67570727 17.68194858 29 15 C28.67 14.01 28.34 13.02 28 12 C27.01 11.67 26.02 11.34 25 11 C25.33 10.01 25.66 9.02 26 8 C26.99 7.67 27.98 7.34 29 7 C22.12799173 0.12799173 9.06534403 1.30498257 0 1 C0 0.67 0 0.34 0 0 Z " fill="#C7520D" transform="translate(60,32)"/>
<path d="M0 0 C0.99 0 1.98 0 3 0 C3.91116273 9.33098129 3.91116273 9.33098129 1.76953125 13.25390625 C-0.71299095 16.19002509 -2.30121745 17.76707248 -6 19 C-8.03177396 19.11576345 -10.06675264 19.17844969 -12.1015625 19.2109375 C-13.31457031 19.23929688 -14.52757812 19.26765625 -15.77734375 19.296875 C-18.31887209 19.34847964 -20.86055793 19.39288812 -23.40234375 19.4296875 C-30.45806647 19.60850201 -36.49412961 20.18176773 -43 23 C-44.36125 23.5878125 -44.36125 23.5878125 -45.75 24.1875 C-48.6254283 26.50381724 -50.11207256 29.14723215 -51.88671875 32.35546875 C-52.43779297 33.16951172 -52.43779297 33.16951172 -53 34 C-53.66 34 -54.32 34 -55 34 C-56.3671875 32.390625 -56.3671875 32.390625 -57.875 30.25 C-60.05731197 27.23327463 -62.25356742 24.53516854 -65 22 C-64.236875 22.309375 -63.47375 22.61875 -62.6875 22.9375 C-60.81210323 23.67893593 -58.91315348 24.36228217 -57 25 C-57.33 23.35 -57.66 21.7 -58 20 C-56.29159719 21.63412443 -55.06546953 22.86906094 -54 25 C-53.69707031 24.32453125 -53.39414063 23.6490625 -53.08203125 22.953125 C-48.82897384 13.89738431 -48.82897384 13.89738431 -44 11 C-43.3723877 10.59338135 -42.74477539 10.1867627 -42.09814453 9.76782227 C-34.35981197 5.26167427 -26.76101822 5.25201939 -18.0625 5.25 C-15.94921225 5.22831042 -13.83615978 5.1998468 -11.7230072 5.16766357 C-9.82465666 5.14200373 -7.92609693 5.13350286 -6.02758789 5.12597656 C-2.95252728 5.13779477 -2.95252728 5.13779477 0 4 C0 2.68 0 1.36 0 0 Z " fill="#EBA103" transform="translate(153,13)"/>
<path d="M0 0 C0.66 3.96 1.32 7.92 2 12 C2.66 12 3.32 12 4 12 C3.67 12.66 3.34 13.32 3 14 C-4.3803633 13.96196691 -11.76023098 13.90264129 -19.14019489 13.81609726 C-22.56703423 13.77658092 -25.99361504 13.74441344 -29.4206543 13.72900391 C-33.36019933 13.71096851 -37.29902769 13.66103569 -41.23828125 13.609375 C-43.0852636 13.60753204 -43.0852636 13.60753204 -44.96955872 13.60565186 C-46.11051498 13.58593323 -47.25147125 13.5662146 -48.42700195 13.54589844 C-49.432939 13.53701599 -50.43887604 13.52813354 -51.47529602 13.51898193 C-54 13 -54 13 -55.82487488 11.19244385 C-57.53197226 8.00749351 -57.39384542 5.54460875 -57 2 C-53.9971521 -0.0018986 -53.36392206 -0.2564284 -49.99438477 -0.3347168 C-49.19247208 -0.35781418 -48.39055939 -0.38091156 -47.56434631 -0.40470886 C-46.69877609 -0.41939713 -45.83320587 -0.43408539 -44.94140625 -0.44921875 C-44.04187729 -0.47095657 -43.14234833 -0.4926944 -42.21556091 -0.51509094 C-40.30664989 -0.55903551 -38.39762451 -0.59822902 -36.48852539 -0.63305664 C-33.60457432 -0.68671714 -30.72141094 -0.75713082 -27.83789062 -0.83007812 C-18.46525604 -1.04323809 -9.32821044 -1.04168933 0 0 Z " fill="#5F3D2E" transform="translate(70,160)"/>
<path d="M0 0 C7.6354334 -0.07593591 15.27076977 -0.12855169 22.90649414 -0.16479492 C25.50516397 -0.17990063 28.10380823 -0.20038634 30.70239258 -0.22631836 C34.43316958 -0.26262243 38.16361013 -0.27970858 41.89453125 -0.29296875 C43.06023148 -0.30845261 44.2259317 -0.32393646 45.42695618 -0.33988953 C47.0482972 -0.34022942 47.0482972 -0.34022942 48.70239258 -0.34057617 C49.65503494 -0.34723801 50.60767731 -0.35389984 51.58918762 -0.36076355 C54 0 54 0 55.80375671 1.30253601 C57.82716426 4.17374247 57.42205231 6.62358151 57 10 C54.80518139 12.23600312 53.43486053 12.94152577 50.31707764 13.36076355 C48.78485565 13.3507708 48.78485565 13.3507708 47.22167969 13.34057617 C46.0607782 13.34034958 44.89987671 13.34012299 43.70379639 13.33988953 C42.45576233 13.32440567 41.20772827 13.30892181 39.921875 13.29296875 C38.64016418 13.28872391 37.35845337 13.28447906 36.03790283 13.28010559 C32.63800365 13.26867648 29.23849177 13.23922666 25.83874512 13.20599365 C22.36650837 13.17525063 18.89420876 13.16159126 15.421875 13.14648438 C8.6144247 13.11435458 1.80723097 13.06318203 -5 13 C-4.360625 12.34 -3.72125 11.68 -3.0625 11 C-0.41087498 7.14309088 -0.31332879 4.62159967 0 0 Z " fill="#5E3D30" transform="translate(134,160)"/>
<path d="M0 0 C1.05719238 0.00467285 2.11438477 0.0093457 3.20361328 0.01416016 C11.18251867 0.16544817 20.20613004 0.45613004 26.1875 6.4375 C25.57003906 6.58445312 24.95257813 6.73140625 24.31640625 6.8828125 C16.64334779 8.9149467 9.84383059 11.46121958 5.29296875 18.2734375 C3.81940683 20.95828803 2.45266743 23.64917021 1.1875 26.4375 C0.13510408 24.85890613 -0.90586394 23.26778028 -1.8203125 21.60546875 C-5.99744009 14.20056074 -11.16074766 10.04146288 -19.3125 7.5625 C-20.8081641 7.17056392 -22.30687227 6.78922451 -23.8125 6.4375 C-17.77589945 -0.28825854 -8.42557834 -0.08110467 0 0 Z " fill="#C24F10" transform="translate(97.8125,12.5625)"/>
<path d="M0 0 C3.40524967 3.50843905 3.40079025 6.14585169 3.34765625 10.8671875 C2.92183373 14.23876856 1.52772826 15.86520743 -0.9375 18.125 C-4.20389824 20.41147877 -7.01221029 20.67454056 -10.9375 20.125 C-13.86233867 18.29952064 -16.37179205 16.25641589 -17.9375 13.125 C-18.140625 10.8828125 -18.140625 10.8828125 -18.1875 8.25 C-18.21328125 7.38632812 -18.2390625 6.52265625 -18.265625 5.6328125 C-17.87452467 2.64368853 -16.96015615 1.32159464 -14.9375 -0.875 C-10.04497351 -3.04945622 -4.40830871 -2.81381407 0 0 Z " fill="#080605" transform="translate(131.9375,48.875)"/>
<path d="M0 0 C2.90572497 1.71108001 3.35905271 2.8312742 5 6 C5.9954846 10.56112943 5.36182419 13.33665565 3.125 17.4375 C0.88248673 20.14170718 0.17397061 20.87524006 -3.2421875 21.23828125 C-10.39863803 21.44002095 -10.39863803 21.44002095 -13.5625 19.125 C-16.64022742 14.57531599 -16.70215593 10.38883527 -16 5 C-12.41137015 -1.18729284 -6.51485903 -1.35766927 0 0 Z " fill="#080505" transform="translate(79,47)"/>
<path d="M0 0 C3.1875 1.3125 3.1875 1.3125 5 4 C5.6950119 7.79628348 5.7183867 11.20602024 5 15 C2.625 18.1875 2.625 18.1875 0 20 C-0.66 20 -1.32 20 -2 20 C-2.33 19.34 -2.66 18.68 -3 18 C-4.65 18.66 -6.3 19.32 -8 20 C-8.33 19.01 -8.66 18.02 -9 17 C-9.33 17.66 -9.66 18.32 -10 19 C-12.0625 19.625 -12.0625 19.625 -14 20 C-14.27554763 17.22954827 -14.52123257 14.46186584 -14.75 11.6875 C-14.83121094 10.90181641 -14.91242188 10.11613281 -14.99609375 9.30664062 C-15.43803312 3.53687669 -15.43803312 3.53687669 -13.35546875 0.984375 C-8.95987214 -0.85259075 -4.6640518 -0.57955673 0 0 Z " fill="#FAB608" transform="translate(129,153)"/>
<path d="M0 0 C2.08304538 -0.05418326 4.16649768 -0.09287551 6.25 -0.125 C7.99023438 -0.15980469 7.99023438 -0.15980469 9.765625 -0.1953125 C13 0 13 0 17 2 C17 7.61 17 13.22 17 19 C15.35 18.34 13.7 17.68 12 17 C11.67 17.66 11.34 18.32 11 19 C6.125 17.125 6.125 17.125 5 16 C4.34 16.99 3.68 17.98 3 19 C0 18 0 18 -1.171875 16.25 C-2.11210003 13.69542633 -2.26656947 11.71739285 -2.25 9 C-2.25515625 8.154375 -2.2603125 7.30875 -2.265625 6.4375 C-1.98531155 3.86521189 -1.2948187 2.2196892 0 0 Z " fill="#FCB904" transform="translate(72,154)"/>
<path d="M0 0 C7.92 0 15.84 0 24 0 C24 4.29 24 8.58 24 13 C16.08 13 8.16 13 0 13 C0 8.71 0 4.42 0 0 Z " fill="#653B29" transform="translate(90,160)"/>
<path d="M0 0 C4.44753199 2.01452762 7.79484602 4.55576659 10 9 C9.82534078 12.36842789 8.49388112 15.01223776 7 18 C6.55914062 18.92296875 6.11828125 19.8459375 5.6640625 20.796875 C4.48003769 23.21967721 3.25935215 25.61569296 2 28 C1.34 28 0.68 28 0 28 C-1.39731908 25.28032531 -2.76757219 22.55199539 -4.125 19.8125 C-4.52332031 19.04357422 -4.92164062 18.27464844 -5.33203125 17.48242188 C-8.14500746 11.7330933 -8.14500746 11.7330933 -7.4375 8.15625 C-5.29209965 4.93814947 -2.82542076 2.64115419 0 0 Z " fill="#FCB408" transform="translate(98,64)"/>
<path d="M0 0 C4.89033937 2.66943081 8.62581203 5.33577656 10.78125 10.58203125 C11.8745627 15.29889461 11.96215986 20.14928233 11.328125 24.94140625 C10.668125 25.60140625 10.008125 26.26140625 9.328125 26.94140625 C9.33972656 26.22855469 9.35132813 25.51570313 9.36328125 24.78125 C9.41418526 19.37815259 9.27420771 14.2631215 8.328125 8.94140625 C7.668125 8.94140625 7.008125 8.94140625 6.328125 8.94140625 C5.60625 8.13703125 4.884375 7.33265625 4.140625 6.50390625 C-0.71860282 2.07660979 -6.36892602 2.81277464 -12.671875 2.94140625 C-12.671875 3.93140625 -12.671875 4.92140625 -12.671875 5.94140625 C-10.031875 6.27140625 -7.391875 6.60140625 -4.671875 6.94140625 C-4.671875 7.27140625 -4.671875 7.60140625 -4.671875 7.94140625 C-5.37054688 7.9671875 -6.06921875 7.99296875 -6.7890625 8.01953125 C-7.69914062 8.07625 -8.60921875 8.13296875 -9.546875 8.19140625 C-10.45179687 8.2378125 -11.35671875 8.28421875 -12.2890625 8.33203125 C-14.75850986 8.7074004 -14.75850986 8.7074004 -15.984375 10.59765625 C-16.8507328 13.55114874 -16.86370786 16.11709479 -16.796875 19.19140625 C-16.76980469 20.80789062 -16.76980469 20.80789062 -16.7421875 22.45703125 C-16.71898438 23.276875 -16.69578125 24.09671875 -16.671875 24.94140625 C-17.661875 24.61140625 -18.651875 24.28140625 -19.671875 23.94140625 C-19.64867188 23.31492187 -19.62546875 22.6884375 -19.6015625 22.04296875 C-19.58351563 21.22570312 -19.56546875 20.4084375 -19.546875 19.56640625 C-19.52367188 18.75429688 -19.50046875 17.9421875 -19.4765625 17.10546875 C-19.45817449 14.72798382 -19.45817449 14.72798382 -21.671875 12.94140625 C-22.661875 13.43640625 -22.661875 13.43640625 -23.671875 13.94140625 C-24.14086463 16.75739115 -24.14086463 16.75739115 -24.296875 20.00390625 C-24.37164062 21.10863281 -24.44640625 22.21335937 -24.5234375 23.3515625 C-24.57242188 24.20621094 -24.62140625 25.06085938 -24.671875 25.94140625 C-27.3973343 21.85321731 -27.27925413 18.73814403 -26.671875 13.94140625 C-24.75980453 7.26126132 -20.53496931 3.42073737 -14.671875 -0.05859375 C-9.56521622 -1.76081334 -5.07189683 -2.00947959 0 0 Z " fill="#F9C6A5" transform="translate(131.671875,39.05859375)"/>
<path d="M0 0 C0.33 1.32 0.66 2.64 1 4 C2.65 3.67 4.3 3.34 6 3 C6.144375 3.7425 6.28875 4.485 6.4375 5.25 C6.90187492 7.52027739 7.41863569 9.75759479 8 12 C8.5775 11.79375 9.155 11.5875 9.75 11.375 C12.60383004 10.89936166 13.4565071 11.69191794 16 13 C21.05304308 13.99911448 21.05304308 13.99911448 26 13 C26 13.66 26 14.32 26 15 C26.99 15 27.98 15 29 15 C28.67 15.99 28.34 16.98 28 18 C27.34 18 26.68 18 26 18 C26 18.99 26 19.98 26 21 C20.65395956 22.78201348 15.69715192 22.48900988 10.3125 20.9375 C5.77052354 18.28087226 2.36632466 14.73264932 0 10 C-0.06996014 8.29297265 -0.08440154 6.58331997 -0.0625 4.875 C-0.05347656 3.96492188 -0.04445312 3.05484375 -0.03515625 2.1171875 C-0.02355469 1.41851562 -0.01195312 0.71984375 0 0 Z " fill="#F5D1BA" transform="translate(55,55)"/>
<path d="M0 0 C0.33 0 0.66 0 1 0 C1 4.29 1 8.58 1 13 C8.92 13 16.84 13 25 13 C25 8.71 25 4.42 25 0 C25.33 0 25.66 0 26 0 C26.495 5.94 26.495 5.94 27 12 C27.99 12 28.98 12 30 12 C30.33 11.01 30.66 10.02 31 9 C31.66 9.33 32.32 9.66 33 10 C32.67 10.99 32.34 11.98 32 13 C33.98 12.01 35.96 11.02 38 10 C38 10.99 38 11.98 38 13 C34.37 14.98 30.74 16.96 27 19 C26.505 17.02 26.505 17.02 26 15 C22.70840684 14.94209647 19.41694397 14.90643739 16.125 14.875 C15.18785156 14.85824219 14.25070313 14.84148437 13.28515625 14.82421875 C11.94130859 14.81455078 11.94130859 14.81455078 10.5703125 14.8046875 C9.32918701 14.78897705 9.32918701 14.78897705 8.06298828 14.77294922 C5.77601843 14.80697743 5.77601843 14.80697743 4 17 C0.875 16.625 0.875 16.625 -2 16 C-2 15.34 -2 14.68 -2 14 C-3.093125 14.020625 -4.18625 14.04125 -5.3125 14.0625 C-9 14 -9 14 -12 13 C-12.33 13.99 -12.66 14.98 -13 16 C-13.66 14.68 -14.32 13.36 -15 12 C-14.01 10.68 -13.02 9.36 -12 8 C-11.38125 8.639375 -10.7625 9.27875 -10.125 9.9375 C-8.17402388 12.03883584 -8.17402388 12.03883584 -6 13 C-5.67 12.01 -5.34 11.02 -5 10 C-3.68 10.66 -2.36 11.32 -1 12 C-0.67 8.04 -0.34 4.08 0 0 Z " fill="#B65C1A" transform="translate(89,160)"/>
<path d="M0 0 C1.94361026 1.22426696 3.80704778 2.48985849 5.6328125 3.8828125 C4.484375 5.890625 4.484375 5.890625 2.6328125 7.8828125 C0.03125 8.125 0.03125 8.125 -2.9921875 7.7578125 C-4.05179688 7.63277344 -5.11140625 7.50773437 -6.203125 7.37890625 C-10.32172055 6.73315115 -14.32272004 5.89392937 -18.3671875 4.8828125 C-13.74687418 -1.33071231 -7.34022837 -3.46420019 0 0 Z " fill="#F7CCB4" transform="translate(80.3671875,39.1171875)"/>
<path d="M0 0 C0.99 0 1.98 0 3 0 C4.03012676 10.5492611 4.03012676 10.5492611 0.5625 15.125 C-2.67943265 18.38248148 -5.75848232 18.85717012 -10.2421875 19.02734375 C-10.82226562 19.01832031 -11.40234375 19.00929688 -12 19 C-12 18.67 -12 18.34 -12 18 C-10.35 18 -8.7 18 -7 18 C-7 17.34 -7 16.68 -7 16 C-5.35 15.67 -3.7 15.34 -2 15 C-2.33 12.69 -2.66 10.38 -3 8 C-3.71655762 8.01047363 -4.43311523 8.02094727 -5.17138672 8.03173828 C-8.40588905 8.07321299 -11.64033553 8.09929892 -14.875 8.125 C-16.00292969 8.14175781 -17.13085938 8.15851562 -18.29296875 8.17578125 C-19.90751953 8.18544922 -19.90751953 8.18544922 -21.5546875 8.1953125 C-23.04718018 8.21102295 -23.04718018 8.21102295 -24.56982422 8.22705078 C-27 8 -27 8 -29 6 C-28.22809326 5.97494385 -27.45618652 5.9498877 -26.66088867 5.92407227 C-23.16958819 5.80815993 -19.67856078 5.68541176 -16.1875 5.5625 C-14.97255859 5.52318359 -13.75761719 5.48386719 -12.50585938 5.44335938 C-10.76079102 5.38051758 -10.76079102 5.38051758 -8.98046875 5.31640625 C-7.90692139 5.27974854 -6.83337402 5.24309082 -5.72729492 5.20532227 C-2.90688447 5.10458153 -2.90688447 5.10458153 0 4 C0 2.68 0 1.36 0 0 Z " fill="#D8A01A" transform="translate(153,13)"/>
<path d="M0 0 C4.89033937 2.66943081 8.62581203 5.33577656 10.78125 10.58203125 C11.8745627 15.29889461 11.96215986 20.14928233 11.328125 24.94140625 C10.668125 25.60140625 10.008125 26.26140625 9.328125 26.94140625 C9.33972656 26.22855469 9.35132813 25.51570313 9.36328125 24.78125 C9.41418526 19.37815259 9.27420771 14.2631215 8.328125 8.94140625 C7.668125 8.94140625 7.008125 8.94140625 6.328125 8.94140625 C5.60625 8.13703125 4.884375 7.33265625 4.140625 6.50390625 C-0.84488979 1.96154833 -7.25217828 2.73760635 -13.671875 2.94140625 C-15.67908423 3.22815043 -17.68366187 3.54376362 -19.671875 3.94140625 C-13.5678005 -1.17281833 -7.6458585 -3.02928019 0 0 Z " fill="#F9C7AC" transform="translate(131.671875,39.05859375)"/>
<path d="M0 0 C0.99 0 1.98 0 3 0 C3.66 1.65 4.32 3.3 5 5 C18.86 5.495 18.86 5.495 33 6 C33 6.33 33 6.66 33 7 C28.74585377 7.02465622 24.49174502 7.04283899 20.23754883 7.05493164 C18.78929927 7.05997101 17.34105483 7.06680253 15.89282227 7.07543945 C13.81525412 7.08752247 11.73775303 7.09323211 9.66015625 7.09765625 C8.40855713 7.10289307 7.15695801 7.10812988 5.86743164 7.11352539 C3 7 3 7 2 6 C2.58803797 9.02419525 3.22678118 12.01758453 4 15 C4.78375 14.95875 5.5675 14.9175 6.375 14.875 C9 15 9 15 11 17 C13.57061311 17.64767793 13.57061311 17.64767793 16 18 C16 18.33 16 18.66 16 19 C7.16299559 19.44933921 7.16299559 19.44933921 3 16 C-1.16270641 11.40666878 -0.27536741 5.82351077 0 0 Z " fill="#D9A323" transform="translate(42,13)"/>
<path d="M0 0 C1.51953125 1.20703125 1.51953125 1.20703125 3 3 C3.07421875 5.26171875 3.07421875 5.26171875 2.6875 7.6875 C2.50767578 8.89986328 2.50767578 8.89986328 2.32421875 10.13671875 C2.21722656 10.75160156 2.11023438 11.36648437 2 12 C2.99 12.33 3.98 12.66 5 13 C4.34 13.66 3.68 14.32 3 15 C-1 15 -1 15 -3 14 C-3.08082094 12.04233719 -3.13910778 10.08373272 -3.1875 8.125 C-3.22230469 7.03445312 -3.25710937 5.94390625 -3.29296875 4.8203125 C-3.19628906 3.88960937 -3.09960938 2.95890625 -3 2 C-2.01 1.34 -1.02 0.68 0 0 Z " fill="#F7D7C5" transform="translate(110,51)"/>
<path d="M0 0 C1.74627478 2.61941217 2.38722388 4.03824877 3 7 C3.45375 6.34 3.9075 5.68 4.375 5 C4.91125 4.34 5.4475 3.68 6 3 C6.66 3 7.32 3 8 3 C7.42274324 6.89648316 5.68124732 9.1697945 3 12 C0.25 13.3125 0.25 13.3125 -2 14 C-2 12 -2 12 -0.5 10.375 C-0.005 9.92125 0.49 9.4675 1 9 C0.01 9 -0.98 9 -2 9 C-2 8.34 -2 7.68 -2 7 C-2.66 7 -3.32 7 -4 7 C-4.33 7.66 -4.66 8.32 -5 9 C-7.31 8.67 -9.62 8.34 -12 8 C-12 7.67 -12 7.34 -12 7 C-11.38511719 6.91363281 -10.77023438 6.82726562 -10.13671875 6.73828125 C-4.79246389 5.92508804 -4.79246389 5.92508804 -0.9375 2.375 C-0.628125 1.59125 -0.31875 0.8075 0 0 Z " fill="#F9C6AC" transform="translate(83,61)"/>
<path d="M0 0 C4.70070213 9.40140426 4.55078215 21.96109793 1.6875 32.125 C0.5506438 35.50549305 0.15049282 35.89967145 -3 38 C-2.78561279 37.37053467 -2.57122559 36.74106934 -2.3503418 36.0925293 C0.08816825 28.22469617 0.35974557 21.0052059 0.1875 12.8125 C0.17396484 11.57435547 0.16042969 10.33621094 0.14648438 9.06054688 C0.11149611 6.0398929 0.06240724 3.0201906 0 0 Z " fill="#2D0C02" transform="translate(158,98)"/>
<path d="M0 0 C0.62648437 0.50402344 1.25296875 1.00804687 1.8984375 1.52734375 C5.21949789 4.48023229 5.21949789 4.48023229 6.625 6.0625 C6.625 6.7225 6.625 7.3825 6.625 8.0625 C3.625 7.0625 3.625 7.0625 1.375 4.75 C-4.09431062 -0.59500811 -8.45215014 -2.42468313 -16.05859375 -2.546875 C-16.75896255 -2.56341125 -17.45933136 -2.57994751 -18.18092346 -2.59698486 C-20.39154132 -2.64510388 -22.60147338 -2.66675278 -24.8125 -2.6875 C-26.32229947 -2.71569027 -27.83206748 -2.74562194 -29.34179688 -2.77734375 C-33.01938401 -2.85084962 -36.69684184 -2.90064534 -40.375 -2.9375 C-40.375 -3.2675 -40.375 -3.5975 -40.375 -3.9375 C-36.06330903 -4.16554595 -31.75075002 -4.36634186 -27.4375 -4.5625 C-26.22513672 -4.62695312 -25.01277344 -4.69140625 -23.76367188 -4.7578125 C-6.63425299 -5.50055153 -6.63425299 -5.50055153 0 0 Z " fill="#E89E12" transform="translate(88.375,23.9375)"/>
<path d="M0 0 C0.33 0 0.66 0 1 0 C1.33 3.96 1.66 7.92 2 12 C2.99 12 3.98 12 5 12 C5.33 11.01 5.66 10.02 6 9 C6.66 9.33 7.32 9.66 8 10 C7.67 10.99 7.34 11.98 7 13 C8.98 12.01 10.96 11.02 13 10 C13 10.99 13 11.98 13 13 C9.37 14.98 5.74 16.96 2 19 C1.67 17.68 1.34 16.36 1 15 C0.67 14.67 0.34 14.34 0 14 C-0.07271741 11.64686445 -0.08370868 9.29166332 -0.0625 6.9375 C-0.05347656 5.64714844 -0.04445313 4.35679687 -0.03515625 3.02734375 C-0.02355469 2.02832031 -0.01195313 1.02929688 0 0 Z " fill="#A8610B" transform="translate(114,160)"/>
<path d="M0 0 C7.30970345 6.2654601 11.14437322 15.67768449 13 25 C13.20872833 28.05378629 13.14835027 30.93409448 13 34 C12.34 34 11.68 34 11 34 C10.93941406 33.28714844 10.87882813 32.57429688 10.81640625 31.83984375 C10.35191899 26.53039712 9.81924749 21.266591 9 16 C8.34 16 7.68 16 7 16 C6.52014033 14.72942818 6.0411407 13.45853152 5.5625 12.1875 C5.16224609 11.12595703 5.16224609 11.12595703 4.75390625 10.04296875 C4.13774814 8.37327604 3.56280765 6.68842296 3 5 C2.34 5 1.68 5 1 5 C0.67 3.35 0.34 1.7 0 0 Z " fill="#AD4F1E" transform="translate(146,78)"/>
<path d="M0 0 C1.60704559 4.00245318 0.26172003 7.32859426 -0.9375 11.25 C-3.7104499 20.15261746 -3.7104499 20.15261746 -2 29 C-1.93003986 30.70702735 -1.91559846 32.41668003 -1.9375 34.125 C-1.94652344 35.03507812 -1.95554688 35.94515625 -1.96484375 36.8828125 C-1.97644531 37.58148438 -1.98804688 38.28015625 -2 39 C-7.75447913 28.25830562 -5.18962753 15.22222162 -2 4 C-0.8984375 1.59765625 -0.8984375 1.59765625 0 0 Z " fill="#AB4F1C" transform="translate(43,90)"/>
<path d="M0 0 C1.06089844 0.00902344 2.12179688 0.01804687 3.21484375 0.02734375 C5.81013638 0.05072476 8.40494465 0.08349444 11 0.125 C10.67 0.785 10.34 1.445 10 2.125 C9.40050537 2.11452637 8.80101074 2.10405273 8.18334961 2.09326172 C5.4347767 2.05137163 2.68627126 2.02556997 -0.0625 2 C-1.47692383 1.97486328 -1.47692383 1.97486328 -2.91992188 1.94921875 C-11.21098657 1.8914413 -18.34799019 2.81271203 -24.6875 8.5625 C-27.17118304 10.97051774 -27.17118304 10.97051774 -28 14.125 C-28.99 14.455 -29.98 14.785 -31 15.125 C-29.59820868 10.66475488 -27.4448567 8.24177511 -24 5.125 C-23.401875 4.568125 -22.80375 4.01125 -22.1875 3.4375 C-15.4277736 -0.61833584 -7.60365764 -0.12371408 0 0 Z " fill="#C45903" transform="translate(131,31.875)"/>
<path d="M0 0 C0.33 0 0.66 0 1 0 C3.58954756 11.09505337 2.34731187 21.5780961 -2 32 C-3.32 30.35 -4.64 28.7 -6 27 C-5.34 26.34 -4.68 25.68 -4 25 C-4 25.66 -4 26.32 -4 27 C-3.34 27 -2.68 27 -2 27 C-0.87743029 21.39658479 -0.67278683 15.8181699 -0.4375 10.125 C-0.37272461 8.66320312 -0.37272461 8.66320312 -0.30664062 7.171875 C-0.20117726 4.78137198 -0.09905825 2.39077556 0 0 Z " fill="#A44719" transform="translate(148,46)"/>
<path d="M0 0 C0.66 0.33 1.32 0.66 2 1 C1.67 1.66 1.34 2.32 1 3 C1.66 3.33 2.32 3.66 3 4 C2.01 4.33 1.02 4.66 0 5 C0 6.32 0 7.64 0 9 C0.99 8.01 1.98 7.02 3 6 C3.99 6.33 4.98 6.66 6 7 C2.87378374 10.39417765 0.43458973 12.6062718 -4 14 C-3.7215625 13.1028125 -3.7215625 13.1028125 -3.4375 12.1875 C-2.77906313 9.83591238 -2.77906313 9.83591238 -4 7 C-2.92745123 4.48301368 -1.45196548 2.33194455 0 0 Z " fill="#F5CBB5" transform="translate(134,62)"/>
<path d="M0 0 C4.29 0 8.58 0 13 0 C13 0.33 13 0.66 13 1 C11.96939453 1.05607422 11.96939453 1.05607422 10.91796875 1.11328125 C10.01691406 1.17902344 9.11585937 1.24476563 8.1875 1.3125 C7.29417969 1.37050781 6.40085937 1.42851562 5.48046875 1.48828125 C2.62040104 2.07831097 1.6774022 2.63443279 0 5 C-0.57017808 7.04100238 -0.57017808 7.04100238 -0.6875 9.1875 C-0.790625 10.445625 -0.89375 11.70375 -1 13 C0.98 13.495 0.98 13.495 3 14 C3.33 15.65 3.66 17.3 4 19 C2.125 18.75 2.125 18.75 0 18 C-1.94478789 14.98081879 -2.27166169 12.55251677 -2.25 9 C-2.25515625 8.154375 -2.2603125 7.30875 -2.265625 6.4375 C-2 4 -2 4 0 0 Z " fill="#F6AD18" transform="translate(72,154)"/>
<path d="M0 0 C-3 2 -3 2 -5.8125 1.875 C-9.90366216 2.03543773 -11.74674697 3.61428111 -15 6 C-15.99 6.33 -16.98 6.66 -18 7 C-18.73323796 9.01508358 -18.73323796 9.01508358 -19 11 C-20.32 11.33 -21.64 11.66 -23 12 C-21.69059675 7.87572988 -20.34300587 6.10410284 -16.6875 3.8125 C-15.92824219 3.32394531 -15.16898437 2.83539062 -14.38671875 2.33203125 C-9.07777926 -0.6308957 -6.05745031 -1.18773536 0 0 Z " fill="#ED990D" transform="translate(126,20)"/>
<path d="M0 0 C1.5 1.125 1.5 1.125 3 3 C3.1875 6.1875 3.1875 6.1875 3 9 C4.32 9.33 5.64 9.66 7 10 C6.34 11.32 5.68 12.64 5 14 C4.34 14 3.68 14 3 14 C1.6328125 12.390625 1.6328125 12.390625 0.125 10.25 C-2.05731197 7.23327463 -4.25356742 4.53516854 -7 2 C-6.236875 2.309375 -5.47375 2.61875 -4.6875 2.9375 C-2.81210323 3.67893593 -0.91315348 4.36228217 1 5 C0.67 3.35 0.34 1.7 0 0 Z " fill="#ED990E" transform="translate(95,33)"/>
<path d="M0 0 C4.94202282 1.37278412 6.27653037 3.82401324 9 8 C9.99 8 10.98 8 12 8 C12.33 6.68 12.66 5.36 13 4 C13.66 4 14.32 4 15 4 C13.55049545 7.7910119 11.84827434 11.3874638 10 15 C8.47232437 12.70848656 7.00635975 10.40596084 5.5625 8.0625 C3.82485333 5.2709552 2.04353395 2.58130605 0 0 Z " fill="#C55A03" transform="translate(89,24)"/>
<path d="M0 0 C-7.57144529 4.44833381 -14.44858269 4.48813062 -23.0625 4.25 C-24.30966797 4.23195313 -25.55683594 4.21390625 -26.84179688 4.1953125 C-29.89534591 4.14851481 -32.9472556 4.08296368 -36 4 C-36.33 3.34 -36.66 2.68 -37 2 C-35.87356079 2.02356567 -35.87356079 2.02356567 -34.72436523 2.04760742 C-31.29548789 2.11027758 -27.86673145 2.14909261 -24.4375 2.1875 C-23.25607422 2.21263672 -22.07464844 2.23777344 -20.85742188 2.26367188 C-14.30330732 2.31874847 -5.61202925 -1.81842709 0 0 Z " fill="#1A0300" transform="translate(83,15)"/>
<path d="M0 0 C0.99 0.66 1.98 1.32 3 2 C2.85691406 3.57201172 2.85691406 3.57201172 2.7109375 5.17578125 C2.59837758 6.55464022 2.48643036 7.93354929 2.375 9.3125 C2.31054688 10.00279297 2.24609375 10.69308594 2.1796875 11.40429688 C1.88197153 15.2559972 1.79236277 16.68854416 4 20 C4 20.99 4 21.98 4 23 C1.625 22.6875 1.625 22.6875 -1 22 C-1.66 21.01 -2.32 20.02 -3 19 C-2.50886719 18.32582031 -2.01773438 17.65164062 -1.51171875 16.95703125 C0.35982777 13.29615084 0.30209194 10.77461267 0.1875 6.6875 C0.16042969 5.43324219 0.13335937 4.17898437 0.10546875 2.88671875 C0.05326172 1.45779297 0.05326172 1.45779297 0 0 Z " fill="#CA622F" transform="translate(142,50)"/>
<path d="M0 0 C-1.47073052 5.22926405 -5.00733149 9.41637993 -9 13 C-9.99 13 -10.98 13 -12 13 C-11.67 11.68 -11.34 10.36 -11 9 C-10.01 9.33 -9.02 9.66 -8 10 C-8.103125 9.278125 -8.20625 8.55625 -8.3125 7.8125 C-7.78390963 3.05518671 -4.80336332 0 0 0 Z " fill="#BB511B" transform="translate(148,147)"/>
<path d="M0 0 C0.5775 0.2475 1.155 0.495 1.75 0.75 C1.75 1.41 1.75 2.07 1.75 2.75 C2.08 3.41 2.41 4.07 2.75 4.75 C1.0625 6.3125 1.0625 6.3125 -1.25 7.75 C-3.875 7.375 -3.875 7.375 -6.25 6.75 C-7.24 7.245 -7.24 7.245 -8.25 7.75 C-6.64613593 4.0076505 -4.56199942 -0.50688882 0 0 Z " fill="#CA500F" transform="translate(111.25,37.25)"/>
<path d="M0 0 C2.31 0 4.62 0 7 0 C7 0.33 7 0.66 7 1 C5.35 1 3.7 1 2 1 C2.66 3.97 3.32 6.94 4 10 C-0.43076923 13.07692308 -0.43076923 13.07692308 -3.3125 12.6875 C-3.869375 12.460625 -4.42625 12.23375 -5 12 C-4.360625 11.505 -3.72125 11.01 -3.0625 10.5 C-0.18484731 7.01193613 -0.29769264 4.46538959 0 0 Z " fill="#6E431F" transform="translate(134,160)"/>
<path d="M0 0 C0.98484375 0.02707031 1.9696875 0.05414063 2.984375 0.08203125 C3.73203125 0.11683594 4.4796875 0.15164062 5.25 0.1875 C5.25 0.5175 5.25 0.8475 5.25 1.1875 C4.32767578 1.26097656 4.32767578 1.26097656 3.38671875 1.3359375 C2.57847656 1.41070312 1.77023438 1.48546875 0.9375 1.5625 C-0.26326172 1.66691406 -0.26326172 1.66691406 -1.48828125 1.7734375 C-4.02224441 2.08314426 -4.02224441 2.08314426 -6.75 4.1875 C-7.33687784 7.53363512 -7.33687784 7.53363512 -7.4375 11.3125 C-7.50324219 12.59382812 -7.56898437 13.87515625 -7.63671875 15.1953125 C-7.67410156 16.18273437 -7.71148437 17.17015625 -7.75 18.1875 C-6.76 18.5175 -5.77 18.8475 -4.75 19.1875 C-6.07 19.5175 -7.39 19.8475 -8.75 20.1875 C-9.02554763 17.41704827 -9.27123257 14.64936584 -9.5 11.875 C-9.58121094 11.08931641 -9.66242188 10.30363281 -9.74609375 9.49414062 C-10.18728762 3.73410953 -10.18728762 3.73410953 -8.125 1.15625 C-5.24389702 -0.01893674 -3.10412802 -0.11086171 0 0 Z " fill="#F6A52B" transform="translate(123.75,152.8125)"/>
<path d="M0 0 C0.66 0.33 1.32 0.66 2 1 C2 6.61 2 12.22 2 18 C-0.475 17.01 -0.475 17.01 -3 16 C-3.33 16.66 -3.66 17.32 -4 18 C-8.875 16.25 -8.875 16.25 -10 14 C-6 14 -6 14 1 15 C0.67 10.05 0.34 5.1 0 0 Z " fill="#EFAD25" transform="translate(87,155)"/>
<path d="M0 0 C0 0.99 0 1.98 0 3 C-0.66 3.66 -1.32 4.32 -2 5 C-4.8203125 4.9765625 -4.8203125 4.9765625 -8.125 4.625 C-9.22070312 4.51414062 -10.31640625 4.40328125 -11.4453125 4.2890625 C-12.70988281 4.14597656 -12.70988281 4.14597656 -14 4 C-12.1875 2.9375 -12.1875 2.9375 -10 2 C-9.01 2.33 -8.02 2.66 -7 3 C-6.67 2.01 -6.34 1.02 -6 0 C-3.50907189 -1.24546405 -2.58919267 -0.7767578 0 0 Z " fill="#F9D6C4" transform="translate(85,42)"/>
<path d="M0 0 C0.66 0 1.32 0 2 0 C1.46199791 4.98599117 -0.11744529 8.51835705 -2.5625 12.875 C-3.20316406 14.02742187 -3.84382812 15.17984375 -4.50390625 16.3671875 C-4.99761719 17.23601562 -5.49132812 18.10484375 -6 19 C-6.33 19 -6.66 19 -7 19 C-7.39918183 15.50715897 -7.22907865 14.30297499 -5.0625 11.4375 C-4.381875 10.633125 -3.70125 9.82875 -3 9 C-2.22166466 6.81785432 -2.22166466 6.81785432 -2 5 C-1.34 5 -0.68 5 0 5 C0 3.35 0 1.7 0 0 Z " fill="#B6531E" transform="translate(155,128)"/>
<path d="M0 0 C0 0.99 0 1.98 0 3 C2.64 3.33 5.28 3.66 8 4 C8 4.33 8 4.66 8 5 C-1.91527563 6.404124 -1.91527563 6.404124 -6 5 C-6.33 4.34 -6.66 3.68 -7 3 C-7.66 2.67 -8.32 2.34 -9 2 C-3.375 0 -3.375 0 0 0 Z " fill="#DEBDAE" transform="translate(119,42)"/>
<path d="M0 0 C0.309375 0.639375 0.61875 1.27875 0.9375 1.9375 C1.8345163 3.93610821 1.8345163 3.93610821 3 5 C5.0708472 5.1584265 7.14678029 5.25124422 9.22265625 5.31640625 C11.11274414 5.37924805 11.11274414 5.37924805 13.04101562 5.44335938 C14.38150736 5.48317596 15.7220022 5.52288814 17.0625 5.5625 C18.40691523 5.60568042 19.7513166 5.64929456 21.09570312 5.69335938 C24.3970234 5.79985358 27.69842236 5.9018646 31 6 C31 6.33 31 6.66 31 7 C26.74585377 7.02465622 22.49174502 7.04283899 18.23754883 7.05493164 C16.78929927 7.05997101 15.34105483 7.06680253 13.89282227 7.07543945 C11.81525412 7.08752247 9.73775303 7.09323211 7.66015625 7.09765625 C6.40855713 7.10289307 5.15695801 7.10812988 3.86743164 7.11352539 C1 7 1 7 0 6 C-0.04080783 4.00041636 -0.04254356 1.99954746 0 0 Z " fill="#C6962D" transform="translate(44,13)"/>
<path d="M0 0 C0.78375 0.639375 1.5675 1.27875 2.375 1.9375 C4.79539281 3.98142313 4.79539281 3.98142313 7 5 C7.33 4.01 7.66 3.02 8 2 C9.32 2.66 10.64 3.32 12 4 C11.67 5.32 11.34 6.64 11 8 C11 7.34 11 6.68 11 6 C9.906875 6.020625 8.81375 6.04125 7.6875 6.0625 C4 6 4 6 1 5 C0.67 5.99 0.34 6.98 0 8 C-1.125 6.25 -1.125 6.25 -2 4 C-1.125 1.75 -1.125 1.75 0 0 Z " fill="#AE530B" transform="translate(76,168)"/>
<path d="M0 0 C0.33 1.32 0.66 2.64 1 4 C0.01 3.67 -0.98 3.34 -2 3 C-2 3.66 -2 4.32 -2 5 C-8.5625 8.48214286 -8.5625 8.48214286 -12.9375 7.1875 C-13.948125 6.795625 -14.95875 6.40375 -16 6 C-16 5.67 -16 5.34 -16 5 C-14.89591797 4.83564453 -14.89591797 4.83564453 -13.76953125 4.66796875 C-6.44134769 3.53139879 -6.44134769 3.53139879 0 0 Z " fill="#BE5521" transform="translate(137,72)"/>
<path d="M0 0 C0 0.99 0 1.98 0 3 C5.445 2.505 5.445 2.505 11 2 C10.67 2.99 10.34 3.98 10 5 C-2.01989891 5.5683665 -2.01989891 5.5683665 -6 2 C-6 1.34 -6 0.68 -6 0 C-3.50907189 -1.24546405 -2.58919267 -0.7767578 0 0 Z " fill="#FDD4BF" transform="translate(120,71)"/>
<path d="M0 0 C0.66 0 1.32 0 2 0 C5.39267452 4.62637435 7.14554683 7.95726892 7.0625 13.6875 C7.05347656 14.49574219 7.04445313 15.30398437 7.03515625 16.13671875 C7.02355469 16.75160156 7.01195313 17.36648437 7 18 C6.67 18 6.34 18 6 18 C5.67 14.7 5.34 11.4 5 8 C4.01 8.33 3.02 8.66 2 9 C1.34 6.03 0.68 3.06 0 0 Z " fill="#F0B495" transform="translate(86,44)"/>
<path d="M0 0 C0.598125 0.20625 1.19625 0.4125 1.8125 0.625 C0.8225 2.11 0.8225 2.11 -0.1875 3.625 C-0.42969315 6.59949608 -0.42969315 6.59949608 -0.3125 9.8125 C-0.28542969 11.44251953 -0.28542969 11.44251953 -0.2578125 13.10546875 C-0.23460938 13.93691406 -0.21140625 14.76835938 -0.1875 15.625 C-1.1775 15.295 -2.1675 14.965 -3.1875 14.625 C-3.15269531 13.72007813 -3.15269531 13.72007813 -3.1171875 12.796875 C-3.09914063 11.99765625 -3.08109375 11.1984375 -3.0625 10.375 C-3.03929688 9.58609375 -3.01609375 8.7971875 -2.9921875 7.984375 C-3.2046622 5.41768059 -3.90095895 3.8333933 -5.1875 1.625 C-2.1875 -0.375 -2.1875 -0.375 0 0 Z " fill="#CBB4A6" transform="translate(115.1875,48.375)"/>
<path d="M0 0 C1.09469539 3.28408617 0.83754891 3.83464274 0 7 C-0.06624507 8.74886981 -0.08552595 10.50002748 -0.0625 12.25 C-0.04896484 13.58804688 -0.04896484 13.58804688 -0.03515625 14.953125 C-0.02355469 15.62859375 -0.01195313 16.3040625 0 17 C-0.33 17 -0.66 17 -1 17 C-1.12375 15.205625 -1.12375 15.205625 -1.25 13.375 C-1.7767929 8.95622973 -3.29865987 6.48560017 -6 3 C-4.02 2.01 -2.04 1.02 0 0 Z " fill="#DEC6B8" transform="translate(85,44)"/>
<path d="M0 0 C0.515625 0.495 1.03125 0.99 1.5625 1.5 C1.2325 3.15 0.9025 4.8 0.5625 6.5 C0.1603125 5.5409375 0.1603125 5.5409375 -0.25 4.5625 C-1.32417752 2.16868314 -1.32417752 2.16868314 -4.4375 1.5 C-6.32962737 1.27820215 -8.22634472 1.09385985 -10.125 0.9375 C-11.11886719 0.85371094 -12.11273438 0.76992187 -13.13671875 0.68359375 C-14.27560547 0.59271484 -14.27560547 0.59271484 -15.4375 0.5 C-15.4375 0.17 -15.4375 -0.16 -15.4375 -0.5 C-4.33333333 -2.66666667 -4.33333333 -2.66666667 0 0 Z " fill="#F59435" transform="translate(89.4375,153.5)"/>
<path d="M0 0 C2.96175123 0.61277612 4.38058783 1.25372522 7 3 C7 3.66 7 4.32 7 5 C8.32 5 9.64 5 11 5 C12 8 12 8 11.0625 10.1875 C10.711875 10.785625 10.36125 11.38375 10 12 C9.16855469 10.95199219 9.16855469 10.95199219 8.3203125 9.8828125 C7.59585938 8.97273438 6.87140625 8.06265625 6.125 7.125 C5.40570313 6.22007813 4.68640625 5.31515625 3.9453125 4.3828125 C2.06439526 1.99734824 2.06439526 1.99734824 0 0 Z " fill="#C95B05" transform="translate(98,63)"/>
<path d="M0 0 C0.66 0 1.32 0 2 0 C2.33 0.66 2.66 1.32 3 2 C4.65 2 6.3 2 8 2 C7.67 3.65 7.34 5.3 7 7 C9.97 7 12.94 7 16 7 C16 7.33 16 7.66 16 8 C7.40490252 9.07014059 7.40490252 9.07014059 4 6.4765625 C0 1.76502404 0 1.76502404 0 0 Z " fill="#B8521D" transform="translate(53,152)"/>
<path d="M0 0 C0.33 1.32 0.66 2.64 1 4 C2.65 3.67 4.3 3.34 6 3 C6.33 4.32 6.66 5.64 7 7 C5.02 7.99 5.02 7.99 3 9 C2.34 8.34 1.68 7.68 1 7 C0.67 7 0.34 7 0 7 C0 4.69 0 2.38 0 0 Z " fill="#F7D8C5" transform="translate(55,55)"/>
<path d="M0 0 C0.33 0.99 0.66 1.98 1 3 C-2.63 4.98 -6.26 6.96 -10 9 C-10 7.35 -10 5.7 -10 4 C-9.36191406 3.79503906 -8.72382812 3.59007812 -8.06640625 3.37890625 C-7.24011719 3.10949219 -6.41382812 2.84007812 -5.5625 2.5625 C-4.73878906 2.29566406 -3.91507812 2.02882812 -3.06640625 1.75390625 C-1.03780412 1.17844506 -1.03780412 1.17844506 0 0 Z " fill="#994A15" transform="translate(126,170)"/>
<path d="M0 0 C2 3 2 3 1.75 5.125 C1 7 1 7 -1 8 C-1.99 7.67 -2.98 7.34 -4 7 C-4.33 7.66 -4.66 8.32 -5 9 C-7.31 8.67 -9.62 8.34 -12 8 C-12 7.67 -12 7.34 -12 7 C-11.38511719 6.91363281 -10.77023438 6.82726562 -10.13671875 6.73828125 C-4.79246389 5.92508804 -4.79246389 5.92508804 -0.9375 2.375 C-0.628125 1.59125 -0.31875 0.8075 0 0 Z " fill="#C4AD9D" transform="translate(83,61)"/>
<path d="M0 0 C0.99 0 1.98 0 3 0 C3.05391993 1.79133978 3.09275571 3.58313899 3.125 5.375 C3.14820313 6.37273437 3.17140625 7.37046875 3.1953125 8.3984375 C3 11 3 11 1 13 C1 11.02 1 9.04 1 7 C0.34 7 -0.32 7 -1 7 C-1 6.34 -1 5.68 -1 5 C-0.34 5 0.32 5 1 5 C0.67 3.35 0.34 1.7 0 0 Z " fill="#EFAF15" transform="translate(131,157)"/>
<path d="M0 0 C-0.309375 0.7425 -0.61875 1.485 -0.9375 2.25 C-1.8094925 4.50692176 -2.47667007 6.6450153 -3 9 C-7 2.25 -7 2.25 -7 0 C-2.25 -1.125 -2.25 -1.125 0 0 Z " fill="#1C0700" transform="translate(149,32)"/>
<path d="M0 0 C2.95409701 1.37154504 5.44008376 2.98863724 8 5 C6.35 5.33 4.7 5.66 3 6 C3 5.34 3 4.68 3 4 C1.02 4.99 1.02 4.99 -1 6 C-0.67 4.02 -0.34 2.04 0 0 Z " fill="#C1551A" transform="translate(109,71)"/>
<path d="M0 0 C5.27749285 0.53851968 9.25645564 1.77343836 14 4 C10.72429875 5.09190042 8.43202271 5.28600189 5 5 C3.25 3.625 3.25 3.625 2 2 C1.34 1.34 0.68 0.68 0 0 Z " fill="#A74B15" transform="translate(110,14)"/>
<path d="M0 0 C3.85645121 -0.22036864 6.49223216 0.39644899 10 2 C10 2.66 10 3.32 10 4 C11.98 4 13.96 4 16 4 C16 4.33 16 4.66 16 5 C9.741346 5.5326514 5.54891215 3.81849506 0 1 C0 0.67 0 0.34 0 0 Z " fill="#A0491A" transform="translate(86,181)"/>
<path d="M0 0 C0.99 0.33 1.98 0.66 3 1 C2.34 1 1.68 1 1 1 C1 1.66 1 2.32 1 3 C2.65 3 4.3 3 6 3 C5.34 3.66 4.68 4.32 4 5 C3.01 4.67 2.02 4.34 1 4 C0.67 4.99 0.34 5.98 0 7 C-0.99 7 -1.98 7 -3 7 C-2.625 4.0625 -2.625 4.0625 -2 1 C-1.34 0.67 -0.68 0.34 0 0 Z " fill="#F7D7C4" transform="translate(112,44)"/>
<path d="M0 0 C3.37462715 0.54723683 5.08235 1.0549 8 3 C5.525 4.485 5.525 4.485 3 6 C1.68 5.01 0.36 4.02 -1 3 C-0.67 2.01 -0.34 1.02 0 0 Z " fill="#F7D8C6" transform="translate(58,46)"/>
<path d="M0 0 C0.33 0.99 0.66 1.98 1 3 C0.34 3 -0.32 3 -1 3 C-1.33 3.99 -1.66 4.98 -2 6 C-5.3 5.34 -8.6 4.68 -12 4 C-12 3.67 -12 3.34 -12 3 C-11.30132812 2.86722656 -10.60265625 2.73445313 -9.8828125 2.59765625 C-8.51769531 2.33275391 -8.51769531 2.33275391 -7.125 2.0625 C-6.22007813 1.88847656 -5.31515625 1.71445313 -4.3828125 1.53515625 C-2.00043683 1.10036299 -2.00043683 1.10036299 0 0 Z " fill="#C2571E" transform="translate(83,74)"/>
<path d="M0 0 C0.33 0 0.66 0 1 0 C1.66 4.29 2.32 8.58 3 13 C2.34 13 1.68 13 1 13 C0.67 13.66 0.34 14.32 0 15 C-1.0024305 9.65370398 -0.84888195 5.37625234 0 0 Z " fill="#CAB0A6" transform="translate(62,54)"/>
<path d="M0 0 C0.6875 1.75 0.6875 1.75 1 4 C-0.25 6.25 -0.25 6.25 -2 8 C-2.99 8 -3.98 8 -5 8 C-3.8141763 4.62496331 -2.72426311 2.35277269 0 0 Z " fill="#B1501C" transform="translate(51,78)"/>
<path d="M0 0 C2.31 0 4.62 0 7 0 C4.03716687 2.38672669 1.05729491 4.7353371 -2 7 C-2 6.01 -2 5.02 -2 4 C-1.34 4 -0.68 4 0 4 C0 2.68 0 1.36 0 0 Z " fill="#BD551E" transform="translate(59,39)"/>
<path d="M0 0 C3.37503669 1.1858237 5.64722731 2.27573689 8 5 C7.67 5.99 7.34 6.98 7 8 C6.34 8 5.68 8 5 8 C4.731875 7.38125 4.46375 6.7625 4.1875 6.125 C3.04443152 3.7004767 3.04443152 3.7004767 0 2 C0 1.34 0 0.68 0 0 Z " fill="#C65E05" transform="translate(129,152)"/>
<path d="M0 0 C2.67455183 1.33727591 2.98881385 2.73288323 4.1875 5.4375 C4.55230469 6.24058594 4.91710937 7.04367188 5.29296875 7.87109375 C6 10 6 10 5 12 C4.34 11.34 3.68 10.68 3 10 C3 8.68 3 7.36 3 6 C2.01 6 1.02 6 0 6 C0 4.02 0 2.04 0 0 Z " fill="#A94D1D" transform="translate(142,34)"/>
<path d="M0 0 C6.35051546 -0.36637589 6.35051546 -0.36637589 9.4375 1.375 C11 3 11 3 11 5 C10.29875 4.71125 9.5975 4.4225 8.875 4.125 C5.94547497 2.97866412 2.99078347 1.97374346 0 1 C0 0.67 0 0.34 0 0 Z " fill="#C75B02" transform="translate(78,19)"/>
<path d="M0 0 C2.34087842 0.27539746 4.67402489 0.6186926 7 1 C8.7015625 1.2784375 8.7015625 1.2784375 10.4375 1.5625 C11.283125 1.706875 12.12875 1.85125 13 2 C13 2.33 13 2.66 13 3 C11.41705218 3.05437607 9.83355744 3.09296271 8.25 3.125 C7.36828125 3.14820313 6.4865625 3.17140625 5.578125 3.1953125 C2.8864142 2.99139502 1.30095026 2.36551721 -1 1 C-0.67 0.67 -0.34 0.34 0 0 Z " fill="#D1BAAC" transform="translate(64,44)"/>
<path d="M0 0 C0.33 0 0.66 0 1 0 C1.04898438 0.74765625 1.09796875 1.4953125 1.1484375 2.265625 C1.22320312 3.25046875 1.29796875 4.2353125 1.375 5.25 C1.44460937 6.22453125 1.51421875 7.1990625 1.5859375 8.203125 C1.98465249 10.89633189 2.63507063 12.66963279 4 15 C2.68 14.67 1.36 14.34 0 14 C0 9.38 0 4.76 0 0 Z " fill="#614008" transform="translate(41,13)"/>
<path d="M0 0 C3.39417765 3.12621626 5.6062718 5.56541027 7 10 C5 8.625 5 8.625 3 7 C3 6.34 3 5.68 3 5 C2.34 5 1.68 5 1 5 C0.67 3.35 0.34 1.7 0 0 Z " fill="#9E4B1A" transform="translate(146,78)"/>
<path d="M0 0 C0.99 0 1.98 0 3 0 C2.34 1.65 1.68 3.3 1 5 C0.01 5 -0.98 5 -2 5 C-2 4.34 -2 3.68 -2 3 C-2.99 2.67 -3.98 2.34 -5 2 C-4.34 1.67 -3.68 1.34 -3 1 C-2.01 1.33 -1.02 1.66 0 2 C0 1.34 0 0.68 0 0 Z " fill="#C75824" transform="translate(90,41)"/>
<path d="M0 0 C2.0625 0.4375 2.0625 0.4375 4 1 C4 1.66 4 2.32 4 3 C4.33 3.66 4.66 4.32 5 5 C3.02 5.99 3.02 5.99 1 7 C0.34 5.02 -0.32 3.04 -1 1 C-0.67 0.67 -0.34 0.34 0 0 Z " fill="#C5551B" transform="translate(109,37)"/>
<path d="M0 0 C2.64 0.33 5.28 0.66 8 1 C8 1.99 8 2.98 8 4 C4.31245243 3.50168276 2.39509338 2.89932357 0 0 Z " fill="#F8C2A8" transform="translate(61,72)"/>
<path d="M0 0 C3.8063457 0.67170806 7.35206816 1.72746564 11 3 C11 3.33 11 3.66 11 4 C8.36 4 5.72 4 3 4 C2.67 3.01 2.34 2.02 2 1 C1.34 0.67 0.68 0.34 0 0 Z " fill="#DC9E18" transform="translate(47,28)"/>
<path d="M0 0 C0.66 0.33 1.32 0.66 2 1 C-2.296875 5.00390625 -2.296875 5.00390625 -4 6 C-6.203125 5.65234375 -6.203125 5.65234375 -8 5 C-6.71475739 4.13619741 -5.42157581 3.28419631 -4.125 2.4375 C-3.04605469 1.72400391 -3.04605469 1.72400391 -1.9453125 0.99609375 C-1.30335937 0.66738281 -0.66140625 0.33867187 0 0 Z " fill="#1E0500" transform="translate(123,174)"/>
<path d="M0 0 C1.32 1.65 2.64 3.3 4 5 C3.01 5 2.02 5 1 5 C0.67 5.99 0.34 6.98 0 8 C-1.125 6.25 -1.125 6.25 -2 4 C-1.125 1.75 -1.125 1.75 0 0 Z " fill="#9F570B" transform="translate(76,168)"/>
<path d="M0 0 C2.45823172 3.68734758 3.01242616 6.69699971 4 11 C3.01 10.67 2.02 10.34 1 10 C0.67 6.7 0.34 3.4 0 0 Z " fill="#2F0B01" transform="translate(40,129)"/>
<path d="M0 0 C1.32 0.99 2.64 1.98 4 3 C3.67 3.99 3.34 4.98 3 6 C1.35 5.01 -0.3 4.02 -2 3 C-1.34 2.01 -0.68 1.02 0 0 Z " fill="#DDC5B4" transform="translate(115,64)"/>
<path d="M0 0 C2.97 0.495 2.97 0.495 6 1 C6 1.66 6 2.32 6 3 C6.66 3 7.32 3 8 3 C8 3.66 8 4.32 8 5 C2.25 3.375 2.25 3.375 0 0 Z " fill="#A74E1D" transform="translate(78,176)"/>
<path d="M0 0 C0.66 0.99 1.32 1.98 2 3 C1.34 4.32 0.68 5.64 0 7 C-3 3.25 -3 3.25 -3 1 C-2.01 0.67 -1.02 0.34 0 0 Z " fill="#C76110" transform="translate(108,68)"/>
<path d="M0 0 C0.99 0.99 1.98 1.98 3 3 C2.67 3.66 2.34 4.32 2 5 C-0.97 4.505 -0.97 4.505 -4 4 C-2.68 2.68 -1.36 1.36 0 0 Z " fill="#FBD5C1" transform="translate(66,40)"/>
</svg>
